<svg xmlns="http://www.w3.org/2000/svg" viewBox="0 0 156 48" width="156" height="48" role="img" aria-label="ember">
  <g shape-rendering="crispEdges"><!-- base coal: deep red-orange #E8522A -->
    <g fill="#E8522A">
      <rect x="8"  y="32" width="4" height="4"/><rect x="36" y="32" width="4" height="4"/>
      <rect x="12" y="36" width="4" height="4"/><rect x="16" y="36" width="4" height="4"/><rect x="20" y="36" width="4" height="4"/><rect x="24" y="36" width="4" height="4"/><rect x="28" y="36" width="4" height="4"/><rect x="32" y="36" width="4" height="4"/>
      <rect x="16" y="40" width="4" height="4"/><rect x="20" y="40" width="4" height="4"/><rect x="24" y="40" width="4" height="4"/><rect x="28" y="40" width="4" height="4"/>
    </g>
    <!-- body: ember orange #FF7A45 -->
    <g fill="#FF7A45">
      <rect x="20" y="4"  width="4" height="4"/>
      <rect x="20" y="8"  width="4" height="4"/><rect x="24" y="8"  width="4" height="4"/>
      <rect x="16" y="12" width="4" height="4"/><rect x="20" y="12" width="4" height="4"/><rect x="24" y="12" width="4" height="4"/>
      <rect x="16" y="16" width="4" height="4"/><rect x="24" y="16" width="4" height="4"/><rect x="28" y="16" width="4" height="4"/>
      <rect x="12" y="20" width="4" height="4"/><rect x="16" y="20" width="4" height="4"/><rect x="28" y="20" width="4" height="4"/>
      <rect x="12" y="24" width="4" height="4"/><rect x="16" y="24" width="4" height="4"/><rect x="28" y="24" width="4" height="4"/><rect x="32" y="24" width="4" height="4"/>
      <rect x="8"  y="28" width="4" height="4"/><rect x="12" y="28" width="4" height="4"/><rect x="28" y="28" width="4" height="4"/><rect x="32" y="28" width="4" height="4"/>
      <rect x="8"  y="32" width="0" height="0"/>
      <rect x="12" y="32" width="4" height="4"/><rect x="16" y="32" width="4" height="4"/><rect x="28" y="32" width="4" height="4"/><rect x="32" y="32" width="4" height="4"/>
    </g>
    <!-- hot core: bright gold #FFE9A8 -->
    <g fill="#FFE9A8">
      <rect x="20" y="16" width="4" height="4"/>
      <rect x="20" y="20" width="4" height="4"/><rect x="24" y="20" width="4" height="4"/>
      <rect x="20" y="24" width="4" height="4"/><rect x="24" y="24" width="4" height="4"/>
      <rect x="16" y="28" width="4" height="4"/><rect x="20" y="28" width="4" height="4"/><rect x="24" y="28" width="4" height="4"/>
      <rect x="20" y="32" width="4" height="4"/><rect x="24" y="32" width="4" height="4"/>
    </g></g>
  <g fill="#E6E2F0" shape-rendering="crispEdges"><rect x="60" y="14" width="4" height="4"/><rect x="64" y="14" width="4" height="4"/><rect x="56" y="18" width="4" height="4"/><rect x="68" y="18" width="4" height="4"/><rect x="56" y="22" width="4" height="4"/><rect x="60" y="22" width="4" height="4"/><rect x="64" y="22" width="4" height="4"/><rect x="68" y="22" width="4" height="4"/><rect x="56" y="26" width="4" height="4"/><rect x="60" y="30" width="4" height="4"/><rect x="64" y="30" width="4" height="4"/><rect x="68" y="30" width="4" height="4"/><rect x="76" y="14" width="4" height="4"/><rect x="80" y="14" width="4" height="4"/><rect x="88" y="14" width="4" height="4"/><rect x="92" y="14" width="4" height="4"/><rect x="76" y="18" width="4" height="4"/><rect x="84" y="18" width="4" height="4"/><rect x="92" y="18" width="4" height="4"/><rect x="76" y="22" width="4" height="4"/><rect x="84" y="22" width="4" height="4"/><rect x="92" y="22" width="4" height="4"/><rect x="76" y="26" width="4" height="4"/><rect x="84" y="26" width="4" height="4"/><rect x="92" y="26" width="4" height="4"/><rect x="76" y="30" width="4" height="4"/><rect x="84" y="30" width="4" height="4"/><rect x="92" y="30" width="4" height="4"/><rect x="100" y="10" width="4" height="4"/><rect x="100" y="14" width="4" height="4"/><rect x="100" y="18" width="4" height="4"/><rect x="104" y="18" width="4" height="4"/><rect x="108" y="18" width="4" height="4"/><rect x="100" y="22" width="4" height="4"/><rect x="112" y="22" width="4" height="4"/><rect x="100" y="26" width="4" height="4"/><rect x="112" y="26" width="4" height="4"/><rect x="100" y="30" width="4" height="4"/><rect x="112" y="30" width="4" height="4"/><rect x="100" y="34" width="4" height="4"/><rect x="104" y="34" width="4" height="4"/><rect x="108" y="34" width="4" height="4"/><rect x="124" y="14" width="4" height="4"/><rect x="128" y="14" width="4" height="4"/><rect x="120" y="18" width="4" height="4"/><rect x="132" y="18" width="4" height="4"/><rect x="120" y="22" width="4" height="4"/><rect x="124" y="22" width="4" height="4"/><rect x="128" y="22" width="4" height="4"/><rect x="132" y="22" width="4" height="4"/><rect x="120" y="26" width="4" height="4"/><rect x="124" y="30" width="4" height="4"/><rect x="128" y="30" width="4" height="4"/><rect x="132" y="30" width="4" height="4"/><rect x="140" y="18" width="4" height="4"/><rect x="148" y="18" width="4" height="4"/><rect x="140" y="22" width="4" height="4"/><rect x="144" y="22" width="4" height="4"/><rect x="148" y="22" width="4" height="4"/><rect x="140" y="26" width="4" height="4"/><rect x="140" y="30" width="4" height="4"/><rect x="140" y="34" width="4" height="4"/></g>
</svg>
