<svg xmlns="http://www.w3.org/2000/svg" viewBox="0 0 200 56" width="200" height="56" role="img" aria-label="ember">
<g fill="#E6E2F0" shape-rendering="crispEdges"><rect x="8" y="8" width="8" height="8"/><rect x="16" y="8" width="8" height="8"/><rect x="0" y="16" width="8" height="8"/><rect x="24" y="16" width="8" height="8"/><rect x="0" y="24" width="8" height="8"/><rect x="8" y="24" width="8" height="8"/><rect x="16" y="24" width="8" height="8"/><rect x="24" y="24" width="8" height="8"/><rect x="0" y="32" width="8" height="8"/><rect x="8" y="40" width="8" height="8"/><rect x="16" y="40" width="8" height="8"/><rect x="24" y="40" width="8" height="8"/><rect x="40" y="8" width="8" height="8"/><rect x="48" y="8" width="8" height="8"/><rect x="64" y="8" width="8" height="8"/><rect x="72" y="8" width="8" height="8"/><rect x="40" y="16" width="8" height="8"/><rect x="56" y="16" width="8" height="8"/><rect x="72" y="16" width="8" height="8"/><rect x="40" y="24" width="8" height="8"/><rect x="56" y="24" width="8" height="8"/><rect x="72" y="24" width="8" height="8"/><rect x="40" y="32" width="8" height="8"/><rect x="56" y="32" width="8" height="8"/><rect x="72" y="32" width="8" height="8"/><rect x="40" y="40" width="8" height="8"/><rect x="56" y="40" width="8" height="8"/><rect x="72" y="40" width="8" height="8"/><rect x="88" y="0" width="8" height="8"/><rect x="88" y="8" width="8" height="8"/><rect x="88" y="16" width="8" height="8"/><rect x="96" y="16" width="8" height="8"/><rect x="104" y="16" width="8" height="8"/><rect x="88" y="24" width="8" height="8"/><rect x="112" y="24" width="8" height="8"/><rect x="88" y="32" width="8" height="8"/><rect x="112" y="32" width="8" height="8"/><rect x="88" y="40" width="8" height="8"/><rect x="112" y="40" width="8" height="8"/><rect x="88" y="48" width="8" height="8"/><rect x="96" y="48" width="8" height="8"/><rect x="104" y="48" width="8" height="8"/><rect x="136" y="8" width="8" height="8"/><rect x="144" y="8" width="8" height="8"/><rect x="128" y="16" width="8" height="8"/><rect x="152" y="16" width="8" height="8"/><rect x="128" y="24" width="8" height="8"/><rect x="136" y="24" width="8" height="8"/><rect x="144" y="24" width="8" height="8"/><rect x="152" y="24" width="8" height="8"/><rect x="128" y="32" width="8" height="8"/><rect x="136" y="40" width="8" height="8"/><rect x="144" y="40" width="8" height="8"/><rect x="152" y="40" width="8" height="8"/><rect x="168" y="16" width="8" height="8"/><rect x="184" y="16" width="8" height="8"/><rect x="168" y="24" width="8" height="8"/><rect x="176" y="24" width="8" height="8"/><rect x="184" y="24" width="8" height="8"/><rect x="168" y="32" width="8" height="8"/><rect x="168" y="40" width="8" height="8"/><rect x="168" y="48" width="8" height="8"/></g>
</svg>
